<svg width="22" height="22" viewBox="0 0 22 22" fill="none" xmlns="http://www.w3.org/2000/svg">
<g id="single-03 1" clip-path="url(#clip0_78742_6881)">
<g id="home">
<g id="ic/24/outline/acc">
<g id="single-03">
<path id="Path" fill-rule="evenodd" clip-rule="evenodd" d="M11.9091 11.1592C17.3442 11.1592 21.75 15.565 21.75 21.0001C21.75 21.4143 21.4142 21.7501 21 21.7501C20.5858 21.7501 20.25 21.4143 20.25 21.0001C20.25 16.4787 16.6528 12.7978 12.1641 12.663L11.9091 12.6592H10.0909C5.48421 12.6592 1.75 16.3934 1.75 21.0001C1.75 21.4143 1.41421 21.7501 1 21.7501C0.585786 21.7501 0.25 21.4143 0.25 21.0001C0.25 15.6571 4.5077 11.3088 9.81545 11.163L10.0909 11.1592H11.9091Z" fill="#211F5F"/>
<path id="Oval" fill-rule="evenodd" clip-rule="evenodd" d="M11 0.25C7.57328 0.25 4.79541 3.02787 4.79541 6.45455C4.79541 9.88122 7.57328 12.6591 11 12.6591C14.4266 12.6591 17.2045 9.88122 17.2045 6.45455C17.2045 3.02787 14.4266 0.25 11 0.25ZM11 1.75C13.5982 1.75 15.7045 3.8563 15.7045 6.45455C15.7045 9.05279 13.5982 11.1591 11 11.1591C8.40171 11.1591 6.29541 9.05279 6.29541 6.45455C6.29541 3.8563 8.40171 1.75 11 1.75Z" fill="#211F5F"/>
</g>
</g>
</g>
</g>
<defs>
<clipPath id="clip0_78742_6881">
<rect width="22" height="22" fill="white"/>
</clipPath>
</defs>
</svg>
