<svg width="24" height="24" viewBox="0 0 24 24" fill="none" xmlns="http://www.w3.org/2000/svg">
<g id="benificiary">
<g id="ic/24/outline/benificiary">
<g id="mobile-contact">
<path id="Path" fill-rule="evenodd" clip-rule="evenodd" d="M13.6259 9.34375L15.6319 10.8547C16.2292 11.3026 16.5991 11.985 16.6525 12.7235L16.6592 12.9092V14.5683H7.88647V12.9092C7.88647 12.1626 8.21046 11.4572 8.76826 10.9721L8.91253 10.8556L10.9198 9.34375L11.8222 10.5419L9.81375 12.0547C9.57809 12.2314 9.4277 12.4953 9.39379 12.7841L9.38647 12.9092L9.38611 13.0681H15.1591L15.1592 12.9092C15.1592 12.6146 15.0383 12.3359 14.8268 12.1349L14.7307 12.0537L12.7234 10.5419L13.6259 9.34375Z" fill="#211F5F"/>
<path id="Oval" d="M12.2727 19.3638C12.825 19.3638 13.2727 18.9161 13.2727 18.3638C13.2727 17.8115 12.825 17.3638 12.2727 17.3638C11.7204 17.3638 11.2727 17.8115 11.2727 18.3638C11.2727 18.9161 11.7204 19.3638 12.2727 19.3638Z" fill="#211F5F"/>
<path id="Path_2" fill-rule="evenodd" clip-rule="evenodd" d="M12.2728 4.88623L12.0933 4.89287C10.7343 5.00248 9.70459 6.11394 9.70459 7.45441V8.3635C9.70459 9.78226 10.854 10.9317 12.2728 10.9317L12.4522 10.925C13.8113 10.8154 14.841 9.70397 14.841 8.3635V7.45441C14.841 6.03565 13.6915 4.88623 12.2728 4.88623ZM12.1842 6.3898L12.272 6.38587C12.8631 6.38623 13.341 6.86408 13.341 7.45441V8.3635C13.341 8.92107 12.9126 9.38339 12.3613 9.42811L12.2425 9.4323C11.6824 9.43168 11.2046 8.95384 11.2046 8.3635V7.45441C11.2046 6.89685 11.6329 6.43452 12.1842 6.3898Z" fill="#211F5F"/>
<path id="Path_3" fill-rule="evenodd" clip-rule="evenodd" d="M17.7273 1.25H6.81818C5.39942 1.25 4.25 2.39942 4.25 3.81818V20.1818C4.25 21.6006 5.39942 22.75 6.81818 22.75H17.7273C19.146 22.75 20.2955 21.6006 20.2955 20.1818V3.81818C20.2955 2.39942 19.146 1.25 17.7273 1.25ZM6.81818 2.75H17.7273C18.3176 2.75 18.7955 3.22785 18.7955 3.81818V20.1818C18.7955 20.7721 18.3176 21.25 17.7273 21.25H6.81818C6.22785 21.25 5.75 20.7721 5.75 20.1818V3.81818C5.75 3.22785 6.22785 2.75 6.81818 2.75Z" fill="#211F5F"/>
</g>
</g>
</g>
</svg>
