<svg width="22" height="22" viewBox="0 0 22 22" fill="none" xmlns="http://www.w3.org/2000/svg">
<path id="face id" fill-rule="evenodd" clip-rule="evenodd" d="M6.38422 0.799805C6.76981 0.799805 7.0824 1.1124 7.0824 1.49798C7.0824 1.80297 6.88555 2.0669 6.59267 2.16205L6.49162 2.18734L6.38422 2.19616H4.18073C3.19156 2.19616 2.36148 2.92674 2.21856 3.87956L2.20178 4.03178L2.19641 4.18049V6.38398C2.19641 6.76956 1.88381 7.08216 1.49823 7.08216C1.19325 7.08216 0.929315 6.88531 0.834165 6.59243L0.808874 6.49138L0.800049 6.38398V4.18049C0.800049 2.44937 2.1112 1.00782 3.81132 0.820189L3.99492 0.804928L4.18073 0.799805H6.38422ZM12.3434 8.37487C12.2461 8.06704 11.9639 7.85863 11.6381 7.85863C11.2315 7.85863 10.8997 8.18148 10.8997 8.58253V12.308L10.8932 12.3511L10.8773 12.3711C10.8604 12.3853 10.8322 12.3991 10.8006 12.3991H10.362L10.259 12.4065L10.1512 12.4311C9.83845 12.5254 9.62358 12.8013 9.62358 13.123C9.62358 13.524 9.95536 13.8469 10.362 13.8469H10.8006L10.9422 13.8405L11.0835 13.8212C11.8256 13.6866 12.3765 13.0562 12.3765 12.308V8.58253L12.3688 8.48102L12.3434 8.37487ZM13.8 14.8225C14.0959 14.5413 14.5594 14.5602 14.8323 14.8643C15.1023 15.1651 15.0843 15.6321 14.7917 15.9102C13.7973 16.8553 12.5026 17.3763 11.1471 17.3763C9.79159 17.3763 8.49692 16.8553 7.50249 15.9102C7.20988 15.6321 7.19189 15.1651 7.46189 14.8643C7.73486 14.5602 8.19829 14.5413 8.49419 14.8225C9.21893 15.5113 10.1607 15.8903 11.1471 15.8903C12.1335 15.8903 13.0753 15.5113 13.8 14.8225ZM2.16229 15.4072C2.06714 15.1143 1.80321 14.9175 1.49823 14.9175C1.11264 14.9175 0.800049 15.23 0.800049 15.6156V17.8191L0.805172 18.0049L0.820434 18.1885C1.00807 19.8887 2.44963 21.1998 4.18073 21.1998H6.38422L6.49162 21.191L6.59267 21.1657C6.88555 21.0705 7.0824 20.8066 7.0824 20.5016C7.0824 20.116 6.76981 19.8034 6.38422 19.8034H4.18073L4.03202 19.7981L3.87981 19.7813C2.92699 19.6384 2.19641 18.8083 2.19641 17.8191V15.6156L2.18758 15.5082L2.16229 15.4072ZM21.1659 15.4072C21.0708 15.1143 20.8069 14.9175 20.5019 14.9175C20.1163 14.9175 19.8037 15.23 19.8037 15.6156V17.8191L19.7983 17.9678L19.7815 18.12C19.6386 19.0729 18.8085 19.8034 17.8194 19.8034H15.6159L15.5085 19.8123L15.4074 19.8376C15.1145 19.9327 14.9177 20.1966 14.9177 20.5016C14.9177 20.8872 15.2303 21.1998 15.6159 21.1998H17.8194L18.0052 21.1947L18.1888 21.1794C19.8889 20.9918 21.2 19.5502 21.2 17.8191V15.6156L21.1912 15.5082L21.1659 15.4072ZM15.2648 7.85863C15.5531 7.85863 15.7923 8.07069 15.8762 8.37248L15.8983 8.47623L15.9059 8.58597V10.1783C15.9059 10.5729 15.6275 10.9057 15.2648 10.9057C14.9765 10.9057 14.7372 10.6936 14.6533 10.3918L14.6312 10.2881L14.6236 10.1783V8.58597C14.6236 8.19139 14.902 7.85863 15.2648 7.85863ZM7.66388 8.48009C7.61932 8.13363 7.35927 7.85863 7.02946 7.85863C6.66667 7.85863 6.38828 8.19139 6.38828 8.58597V10.1783L6.39504 10.2842C6.4396 10.6307 6.69965 10.9057 7.02946 10.9057L7.13007 10.8961L7.23472 10.8644C7.50187 10.7585 7.67064 10.4852 7.67064 10.1783V8.58597L7.66388 8.48009ZM21.1797 3.81107C20.992 2.11095 19.5505 0.799805 17.8194 0.799805H15.6159L15.5085 0.80863L15.4074 0.83392C15.1145 0.929071 14.9177 1.193 14.9177 1.49798C14.9177 1.88357 15.2303 2.19616 15.6159 2.19616H17.8194L17.9681 2.20153L18.1203 2.21831C19.0731 2.36124 19.8037 3.19131 19.8037 4.18049V6.38398L19.8125 6.49138L19.8378 6.59243C19.933 6.88531 20.1969 7.08216 20.5019 7.08216C20.8875 7.08216 21.2 6.76956 21.2 6.38398V4.18049L21.1949 3.99467L21.1797 3.81107Z" fill="#211F5F"/>
</svg>
