<svg width="24" height="24" viewBox="0 0 24 24" fill="none" xmlns="http://www.w3.org/2000/svg">
<g id="lock">
<g id="ic/24/outline/-lock">
<path id="Rectangle" fill-rule="evenodd" clip-rule="evenodd" d="M19.25 10.75V20C19.25 20.6214 18.9982 21.1839 18.591 21.591C18.1838 21.9982 17.6213 22.25 17 22.25H8C7.37868 22.25 6.81618 21.9982 6.40901 21.591C6.00184 21.1839 5.75 20.6214 5.75 20V10.75L19.25 10.75Z" stroke="#211F5F" stroke-width="1.5"/>
<path id="Oval" d="M13 17C13.5523 17 14 16.5523 14 16C14 15.4477 13.5523 15 13 15C12.4477 15 12 15.4477 12 16C12 16.5523 12.4477 17 13 17Z" fill="#211F5F"/>
<path id="Rectangle_2" fill-rule="evenodd" clip-rule="evenodd" d="M12.5 3C13.5355 3 14.473 3.41973 15.1517 4.09835C15.8303 4.77697 16.25 5.71447 16.25 6.75V10.75H8.75L8.75 6.75C8.75 5.71447 9.16973 4.77697 9.84835 4.09835C10.527 3.41973 11.4645 3 12.5 3Z" stroke="#211F5F" stroke-width="1.5"/>
</g>
</g>
</svg>
