<svg width="24" height="24" viewBox="0 0 24 24" fill="none" xmlns="http://www.w3.org/2000/svg">
<g id="landline">
<g id="ic/24/outline/-landline">
<g id="iconfinder_phone1_172517">
<path id="Path" fill-rule="evenodd" clip-rule="evenodd" d="M14.3478 15.131C14.3478 15.131 15.7819 14.3101 16.1573 14.1128C16.5316 13.9148 16.9194 13.8649 17.155 14.0087C17.5116 14.2268 20.5064 16.219 20.7586 16.3954C21.0108 16.5722 21.1322 17.0768 20.7855 17.5713C20.4402 18.0657 18.8472 20.0207 18.1721 20C17.496 19.9779 14.685 19.9162 9.3842 14.6139C4.08447 9.31339 4.02178 6.50162 4.00018 5.8255C3.97857 5.14974 5.93357 3.55632 6.42798 3.21065C6.92311 2.86533 7.4285 2.99531 7.60417 3.23827C7.80392 3.51488 9.77308 6.5002 9.98983 6.84233C10.1382 7.07609 10.0837 7.46603 9.8857 7.84074C9.68879 8.21617 8.86783 9.65021 8.86783 9.65021C8.86783 9.65021 9.44654 10.6373 11.4037 12.5941C13.3611 14.5512 14.3478 15.131 14.3478 15.131Z" stroke="#211F5F" stroke-width="1.5"/>
</g>
</g>
</g>
</svg>
