<svg width="24" height="24" viewBox="0 0 24 24" fill="none" xmlns="http://www.w3.org/2000/svg">
<g id="notis">
<g id="ic/24/outline/notis">
<g id="alarm">
<path id="Path" fill-rule="evenodd" clip-rule="evenodd" d="M11.826 2.25C8.05009 2.25 4.98908 5.31101 4.98908 9.08696V13.4348C4.96488 15.4397 4.40182 17.4104 3.35843 19.1332C3.05571 19.633 3.41559 20.2717 3.99995 20.2717H19.6521C20.2365 20.2717 20.5964 19.633 20.2936 19.1332C19.2503 17.4104 18.6872 15.4397 18.6629 13.4258L18.663 9.08696C18.663 5.31101 15.602 2.25 11.826 2.25ZM11.826 3.75C14.7736 3.75 17.163 6.13944 17.163 9.08696V13.4348L17.1753 13.8636C17.2465 15.4329 17.6043 16.9683 18.2271 18.3972L18.3969 18.771H5.25395L5.425 18.3973C6.10442 16.8389 6.46842 15.1551 6.48902 13.4438L6.48908 9.08696C6.48908 6.13944 8.87851 3.75 11.826 3.75Z" fill="#211F5F"/>
<path id="Path_2" fill-rule="evenodd" clip-rule="evenodd" d="M9.36865 21.2607C9.7389 22.3 10.7228 22.9939 11.826 22.9939C12.9292 22.9939 13.9132 22.3 14.2834 21.2607H9.36865Z" fill="#211F5F"/>
</g>
</g>
</g>
</svg>
