<svg width="24" height="24" viewBox="0 0 24 24" fill="none" xmlns="http://www.w3.org/2000/svg">
<g id="TC">
<g id="ic/24/outline/TC">
<g id="paper">
<path id="Path" fill-rule="evenodd" clip-rule="evenodd" d="M21.1819 17.6138H7.54553C7.13132 17.6138 6.79553 17.9496 6.79553 18.3638V19.7274C6.79553 20.3265 6.53349 20.7065 6.04773 20.9737C5.72552 21.1509 5.3905 21.2346 5.19818 21.2539C4.25153 21.3485 4.32144 22.7501 5.2728 22.7501H18.9092C20.5788 22.7501 21.9319 21.3971 21.9319 19.7274V18.3638C21.9319 17.9496 21.5961 17.6138 21.1819 17.6138ZM20.4311 19.1131L20.4319 19.7274L20.4257 19.866C20.3557 20.6423 19.7037 21.2501 18.9092 21.2501H7.88908L7.97719 21.0973C8.18256 20.7051 8.29553 20.2483 8.29553 19.7274L8.29508 19.1131H20.4311Z" fill="#211F5F"/>
<path id="Path_2" fill-rule="evenodd" clip-rule="evenodd" d="M18.4545 1.25C18.8342 1.25 19.148 1.53215 19.1977 1.89823L19.2045 2V15.6364C19.2045 16.0506 18.8688 16.3864 18.4545 16.3864C18.0749 16.3864 17.7611 16.1042 17.7114 15.7381L17.7045 15.6364L17.704 2.75H3.75V19.7273C3.75 20.5218 4.35787 21.1738 5.13409 21.2438L5.27273 21.25H6.63636C7.05058 21.25 7.38636 21.5858 7.38636 22C7.38636 22.3797 7.10421 22.6935 6.73813 22.7432L6.63636 22.75H5.27273C3.66269 22.75 2.34705 21.4919 2.25513 19.9049L2.25 19.7273V2C2.25 1.6203 2.53215 1.30651 2.89823 1.25685L3 1.25H18.4545Z" fill="#211F5F"/>
<path id="Path_3" fill-rule="evenodd" clip-rule="evenodd" d="M13.909 5.79541C14.3233 5.79541 14.659 6.1312 14.659 6.54541C14.659 6.92511 14.3769 7.2389 14.0108 7.28856L13.909 7.29541H7.54541C7.1312 7.29541 6.79541 6.95962 6.79541 6.54541C6.79541 6.16571 7.07756 5.85192 7.44364 5.80226L7.54541 5.79541H13.909Z" fill="#211F5F"/>
<path id="Path_4" fill-rule="evenodd" clip-rule="evenodd" d="M13.909 9.43164C14.3233 9.43164 14.659 9.76743 14.659 10.1816C14.659 10.5613 14.3769 10.8751 14.0108 10.9248L13.909 10.9316H7.54541C7.1312 10.9316 6.79541 10.5959 6.79541 10.1816C6.79541 9.80194 7.07756 9.48815 7.44364 9.43849L7.54541 9.43164H13.909Z" fill="#211F5F"/>
<path id="Path_5" fill-rule="evenodd" clip-rule="evenodd" d="M13.909 13.0684C14.3233 13.0684 14.659 13.4041 14.659 13.8184C14.659 14.1981 14.3769 14.5119 14.0108 14.5615L13.909 14.5684H7.54541C7.1312 14.5684 6.79541 14.2326 6.79541 13.8184C6.79541 13.4387 7.07756 13.1249 7.44364 13.0752L7.54541 13.0684H13.909Z" fill="#211F5F"/>
</g>
</g>
</g>
</svg>
