<svg width="46" height="64" viewBox="0 0 46 64" fill="none" xmlns="http://www.w3.org/2000/svg">
<g id="Logo">
<path id="Path" d="M32.0323 8.65868C34.48 8.65868 36.3517 6.71048 36.3517 4.32934C36.3517 1.87605 34.408 0 32.0323 0C29.6566 0 27.7128 1.9482 27.7128 4.32934C27.6408 6.78263 29.6566 8.65868 32.0323 8.65868Z" fill="#34317C"/>
<path id="Path_2" d="M13.6085 8.65868C15.9842 8.65868 17.928 6.71048 17.928 4.32934C17.928 1.9482 15.9122 0 13.6085 0C11.1608 0 9.28906 1.9482 9.28906 4.32934C9.28906 6.71048 11.1608 8.65868 13.6085 8.65868Z" fill="#34317C"/>
<path id="Path_3" d="M44.0585 11.9757H38.6592L37.6513 11.9757L37.6513 40.9823C37.6513 45.1674 36.1395 48.703 33.2598 51.7335C30.3802 54.6919 26.9966 56.135 23.1091 56.135C19.2216 56.135 15.766 54.6919 12.8864 51.7335C10.0068 48.703 8.56693 45.0952 8.56693 40.9823L8.56693 11.9757H6.98313L2.15973 11.9757H0L0 40.9102C0 47.4763 2.15973 53.0323 6.4072 57.4338C10.7267 61.8353 16.198 64 22.8211 64C29.4443 64 34.8436 61.7632 39.1631 57.4338C43.4826 53.0323 45.7143 47.5485 45.7143 40.9102L45.7143 11.9757H44.0585Z" fill="#34317C"/>
</g>
</svg>
