<svg width="87" height="32" viewBox="0 0 87 32" fill="none" xmlns="http://www.w3.org/2000/svg">
<g id="&#195;&#156;bank logo_new">
<g id="Group 7606">
<g id="Group 8">
<g id="Group 5">
<g id="Group 7605">
<path id="Vector" fill-rule="evenodd" clip-rule="evenodd" d="M63.1676 27.6771C63.2391 27.6873 63.3116 27.6896 63.3836 27.6837C63.6594 27.6837 63.9342 27.6894 64.2099 27.6837C64.3465 27.6815 64.4811 27.7166 64.5993 27.7851C64.8779 27.9538 65.1301 28.1626 65.3479 28.4048C65.5374 28.5943 65.7127 28.7838 65.8965 28.9733C65.9109 28.9859 65.9222 29.0015 65.9298 29.0191C65.9373 29.0366 65.9408 29.0556 65.9401 29.0747C65.9401 29.4537 65.9325 29.8251 65.9325 30.2013C65.9325 30.2724 65.9041 30.2695 65.851 30.2525C65.6688 30.1839 65.5023 30.0795 65.3611 29.9455C65.0503 29.6745 64.7737 29.3694 64.4866 29.0738C64.0441 28.6189 63.6272 28.1348 63.1676 27.6932V27.6771Z" fill="#EC1E25"/>
<path id="Vector_2" fill-rule="evenodd" clip-rule="evenodd" d="M67.3083 25.5729C67.2981 25.6034 67.2955 25.6359 67.3007 25.6677C67.3007 26.1035 67.3007 26.5403 67.3007 26.9762C67.3072 27.1387 67.2808 27.3008 67.2232 27.4529C67.1656 27.6049 67.0778 27.7438 66.9653 27.8612C66.6867 28.1521 66.4138 28.4487 66.139 28.7414C66.1068 28.7272 66.121 28.7016 66.121 28.6827C66.121 28.0848 66.121 27.4869 66.121 26.89C66.123 26.8641 66.1302 26.8389 66.1422 26.8159C66.1543 26.7929 66.1709 26.7727 66.1912 26.7564L67.2912 25.5729H67.3083Z" fill="#EC1E26"/>
<path id="Vector_3" fill-rule="evenodd" clip-rule="evenodd" d="M68.8909 27.6815C68.7327 27.8445 68.5858 27.9923 68.4427 28.143C67.9377 28.6793 67.4393 29.2222 66.9115 29.7405C66.7679 29.8884 66.6091 30.0208 66.4378 30.1356C66.3683 30.1821 66.2932 30.2194 66.2141 30.2465C66.1194 30.2749 66.1194 30.2739 66.1194 30.1801V29.3871C66.1218 29.3593 66.1218 29.3314 66.1194 29.3037C66.1032 29.2147 66.1113 29.1229 66.143 29.0382C66.1747 28.9534 66.2288 28.8788 66.2994 28.8223C66.5837 28.5513 66.8348 28.2424 67.1437 27.9942C67.2154 27.9367 67.29 27.8829 67.3673 27.8331C67.5233 27.7251 67.7102 27.6706 67.8998 27.6777C68.1973 27.69 68.4949 27.6777 68.7933 27.6777L68.8909 27.6815Z" fill="#EC1E25"/>
<path id="Vector_4" fill-rule="evenodd" clip-rule="evenodd" d="M64.7394 25.5781L65.1184 25.9732L65.8764 26.7711C65.8923 26.7841 65.9052 26.8004 65.9142 26.8189C65.9232 26.8374 65.9281 26.8576 65.9285 26.8781C65.9285 27.4871 65.9285 28.0963 65.9285 28.7059C65.9285 28.7144 65.9285 28.722 65.9285 28.7467L65.6604 28.4624C65.4386 28.2416 65.2217 28.0171 65.0179 27.784C64.8373 27.5897 64.7359 27.3348 64.7337 27.0695C64.7289 26.5882 64.7337 26.1068 64.7337 25.6255C64.7337 25.616 64.7337 25.6056 64.7394 25.5781Z" fill="#EC1D25"/>
</g>
<path id="Vector_5" fill-rule="evenodd" clip-rule="evenodd" d="M84.0177 29.2814C83.9337 29.3665 83.8261 29.4245 83.7088 29.4481V28.7744C83.8983 28.5849 84.0793 28.3907 84.266 28.2002C84.3096 28.1567 84.3607 28.1188 84.4043 28.0799C84.4648 28.0244 84.5361 27.9819 84.6136 27.955C84.6912 27.9281 84.7735 27.9174 84.8553 27.9236C85.0155 27.9359 85.1775 27.9236 85.3386 27.9236V27.9397C85.1822 28.0761 85.0448 28.2315 84.8989 28.3784C84.7284 28.548 84.5616 28.7214 84.3939 28.8938C84.2545 29.0086 84.1283 29.1386 84.0177 29.2814Z" fill="#707070"/>
<path id="Vector_6" fill-rule="evenodd" clip-rule="evenodd" d="M77.3093 28.3726C77.4549 28.4295 77.5849 28.5202 77.6884 28.6374C77.7919 28.7546 77.8659 28.8948 77.9043 29.0463C78.0588 29.6233 77.7452 30.0886 77.1463 30.1833C77.009 30.2041 76.8702 30.2146 76.7313 30.2146C76.358 30.2146 75.9856 30.2146 75.6132 30.2146C75.5545 30.2146 75.5393 30.1985 75.5393 30.1407C75.5393 29.0618 75.5393 27.9829 75.5393 26.9039C75.5393 26.8471 75.5507 26.8281 75.6113 26.8281C76.0225 26.8281 76.4347 26.8281 76.8431 26.8281C77.0088 26.8277 77.1718 26.8694 77.3169 26.9494C77.6277 27.1209 77.7404 27.3929 77.7186 27.7378C77.7173 27.8714 77.6782 28.002 77.6057 28.1143C77.5333 28.2267 77.4305 28.3162 77.3093 28.3726ZM76.104 29.16V29.6195C76.104 29.648 76.0946 29.6821 76.1457 29.6811C76.4177 29.6755 76.6906 29.6878 76.9625 29.6707C77.0263 29.663 77.0877 29.6417 77.1426 29.6082C77.1975 29.5746 77.2444 29.5297 77.2804 29.4764C77.3164 29.4231 77.3404 29.3627 77.351 29.2993C77.3615 29.2358 77.3583 29.1709 77.3415 29.1088C77.278 28.8558 77.0866 28.7431 76.8554 28.6824C76.6242 28.6218 76.3817 28.6521 76.1495 28.6464C76.1002 28.6464 76.1097 28.6815 76.1088 28.7099L76.104 29.16ZM76.0983 27.7491V28.0078C76.0983 28.1727 76.0983 28.1755 76.2613 28.1727C76.4446 28.1814 76.6282 28.1773 76.8109 28.1604C76.918 28.1441 77.0148 28.0872 77.081 28.0014C77.1471 27.9156 77.1777 27.8076 77.1662 27.6999C77.1463 27.48 77.0118 27.3597 76.7673 27.3388C76.5645 27.3218 76.3618 27.3284 76.159 27.3227C76.0974 27.3227 76.086 27.3436 76.0879 27.3985C76.0965 27.5151 76.0936 27.6326 76.0936 27.7491H76.0983Z" fill="#707070"/>
<path id="Vector_7" fill-rule="evenodd" clip-rule="evenodd" d="M72.8083 28.5167C72.8083 27.9832 72.8083 27.4497 72.8083 26.9153C72.8083 26.8462 72.8263 26.8272 72.8954 26.8282C73.3427 26.8348 73.7899 26.8282 74.2371 26.8424C74.7659 26.8661 75.106 27.1986 75.143 27.7274C75.168 27.975 75.1175 28.2244 74.998 28.4427C74.9258 28.5718 74.8228 28.681 74.6981 28.7605C74.5734 28.84 74.431 28.8874 74.2836 28.8985C74.0265 28.926 73.7678 28.9355 73.5094 28.9269C73.4441 28.9269 73.427 28.944 73.4279 29.0094C73.4279 29.3884 73.4279 29.7598 73.4279 30.135C73.4279 30.1957 73.4166 30.2175 73.3512 30.2156C73.1958 30.2099 73.0395 30.2099 72.8841 30.2156C72.8187 30.2156 72.8064 30.1947 72.8064 30.135C72.8092 29.5959 72.8083 29.0567 72.8083 28.5167ZM73.4185 27.879C73.4185 28.0372 73.4185 28.1954 73.4185 28.3527C73.4185 28.3868 73.4185 28.4105 73.4658 28.4105C73.6795 28.4161 73.8934 28.4097 74.1064 28.3916C74.1733 28.3886 74.2389 28.3719 74.2992 28.3427C74.3595 28.3134 74.4131 28.2721 74.4569 28.2214C74.5006 28.1706 74.5335 28.1115 74.5536 28.0475C74.5736 27.9836 74.5804 27.9162 74.5735 27.8496C74.5631 27.5653 74.3764 27.3758 74.0723 27.3569C73.8752 27.3427 73.6781 27.3512 73.482 27.3455C73.4279 27.3455 73.4175 27.3626 73.4185 27.4118C73.4204 27.5682 73.4185 27.7236 73.4185 27.879Z" fill="#707070"/>
<path id="Vector_8" fill-rule="evenodd" clip-rule="evenodd" d="M71.1064 29.5985C71.2888 29.1516 71.4416 28.6933 71.564 28.2264C71.6794 27.7944 71.7586 27.3536 71.8009 26.9084C71.8066 26.843 71.8284 26.8203 71.8957 26.8231C72.052 26.8288 72.2074 26.8231 72.3638 26.8231C72.4092 26.8231 72.4178 26.8364 72.4111 26.8809C72.2879 27.8264 72.037 28.7507 71.6654 29.6288C71.5896 29.8041 71.5081 29.9775 71.4229 30.149C71.4166 30.1667 71.4044 30.1819 71.3884 30.1918C71.3724 30.2018 71.3535 30.2061 71.3347 30.2039C71.1737 30.2039 71.0116 30.2039 70.8506 30.2039C70.8277 30.2064 70.8047 30.2013 70.7852 30.1893C70.7656 30.1773 70.7506 30.1591 70.7425 30.1376C70.4212 29.5129 70.1763 28.8518 70.0129 28.1686C69.9068 27.7451 69.8234 27.3159 69.7581 26.8866C69.7495 26.8317 69.7581 26.8222 69.814 26.8231C69.9665 26.8231 70.12 26.8298 70.2726 26.8231C70.3512 26.8231 70.3673 26.8525 70.3777 26.9179C70.427 27.2865 70.4952 27.6522 70.5796 28.0151C70.6944 28.527 70.8562 29.0272 71.0628 29.5094L71.1064 29.5985Z" fill="#707070"/>
<path id="Vector_9" fill-rule="evenodd" clip-rule="evenodd" d="M80.7372 29.0237C80.7372 28.6589 80.7372 28.295 80.7372 27.9302C80.7372 27.8705 80.7495 27.8469 80.814 27.8497C80.9201 27.8554 81.0262 27.8497 81.1314 27.8497C81.2366 27.8497 81.2574 27.8715 81.264 27.9748C81.264 27.9947 81.264 28.0136 81.264 28.0335C81.264 28.0923 81.282 28.0998 81.3323 28.0657C81.5382 27.9165 81.7817 27.8276 82.0353 27.809C82.475 27.7872 82.6872 27.9776 82.6929 28.4173C82.7005 28.9934 82.6929 29.5685 82.6929 30.1446C82.6929 30.1929 82.6778 30.2062 82.6313 30.2053C82.4702 30.2053 82.3092 30.2053 82.1481 30.2053C82.0865 30.2053 82.0761 30.1854 82.0761 30.1295C82.0761 29.5932 82.0761 29.0559 82.0761 28.5187C82.0761 28.3102 81.9624 28.2192 81.7577 28.2647C81.6225 28.3025 81.4928 28.358 81.3721 28.4296C81.3266 28.4533 81.3332 28.4912 81.3332 28.5243C81.3332 29.0531 81.3332 29.5808 81.3332 30.1096C81.3332 30.1778 81.319 30.1996 81.2479 30.1967C81.1058 30.191 80.9637 30.191 80.8225 30.1967C80.7543 30.1967 80.7334 30.1816 80.7334 30.1105C80.7391 29.7561 80.7372 29.3875 80.7372 29.0237Z" fill="#707070"/>
<path id="Vector_10" fill-rule="evenodd" clip-rule="evenodd" d="M79.737 29.9432C79.6037 30.0726 79.4412 30.1682 79.2632 30.2218C79.1213 30.2646 78.9712 30.2727 78.8255 30.2455C78.7188 30.2291 78.6196 30.1805 78.5414 30.1061C78.4631 30.0318 78.4095 29.9352 78.3877 29.8295C78.3342 29.6415 78.3342 29.4423 78.3877 29.2543C78.4777 28.9701 78.7013 28.8516 78.9638 28.7806C79.1855 28.7263 79.413 28.6993 79.6413 28.7C79.6963 28.7 79.718 28.6849 79.7095 28.6299C79.709 28.6214 79.709 28.6129 79.7095 28.6043C79.7095 28.3201 79.5788 28.2007 79.2964 28.2253C79.0796 28.2389 78.8671 28.2915 78.6691 28.3807C78.6208 28.4035 78.6057 28.394 78.5876 28.3457C78.5573 28.2632 78.5166 28.1836 78.4815 28.1022C78.455 28.0406 78.4578 27.996 78.5374 27.9704C78.8589 27.852 79.1993 27.7933 79.5418 27.797C79.6586 27.8 79.7745 27.8178 79.8867 27.8501C80.1293 27.9231 80.2354 28.1078 80.2799 28.3409C80.2932 28.4147 80.2989 28.4896 80.297 28.5645C80.297 28.9486 80.297 29.3327 80.297 29.7167C80.2905 29.8613 80.2959 30.0061 80.3131 30.1498C80.3207 30.2 80.3084 30.218 80.2534 30.2161C80.1365 30.2123 80.02 30.2123 79.9038 30.2161C79.8833 30.2184 79.8626 30.2135 79.8454 30.2022C79.8281 30.191 79.8152 30.1741 79.809 30.1545C79.7803 30.0857 79.7563 30.0152 79.737 29.9432ZM79.7133 29.3264C79.7096 29.2632 79.7096 29.2 79.7133 29.1369C79.7209 29.0705 79.6915 29.0554 79.6356 29.0563C79.5797 29.0573 79.4963 29.0563 79.4272 29.0563C79.0576 29.0563 78.8899 29.2136 78.9411 29.5301C78.9411 29.549 78.9411 29.5689 78.9411 29.5879C78.9423 29.6299 78.9536 29.6711 78.9739 29.7079C78.9942 29.7447 79.0231 29.7762 79.058 29.7996C79.0929 29.8231 79.133 29.8379 79.1748 29.8427C79.2166 29.8476 79.2589 29.8424 79.2983 29.8276C79.4 29.7983 79.4961 29.7522 79.5826 29.6912C79.6281 29.6706 79.6653 29.6353 79.6884 29.5909C79.7114 29.5466 79.7189 29.4958 79.7095 29.4467C79.7071 29.4056 79.7083 29.3644 79.7133 29.3235V29.3264Z" fill="#707070"/>
<path id="Vector_11" fill-rule="evenodd" clip-rule="evenodd" d="M83.7095 28.7761V29.4469C83.7095 29.681 83.7095 29.9141 83.7095 30.1471C83.7095 30.2031 83.6943 30.2173 83.6394 30.2163C83.4868 30.2163 83.3333 30.2106 83.1808 30.2163C83.1097 30.2163 83.1031 30.1907 83.1031 30.131C83.1031 29.0963 83.1031 28.0616 83.1031 27.0269C83.1031 26.9616 83.0727 26.8744 83.1163 26.8374C83.1599 26.8005 83.2386 26.827 83.3058 26.8261C83.4167 26.8261 83.5285 26.8261 83.6394 26.8261C83.7 26.8261 83.7114 26.845 83.7104 26.9009C83.7104 27.4941 83.7104 28.0863 83.7104 28.6785C83.7057 28.7145 83.7085 28.7429 83.7095 28.7761Z" fill="#707070"/>
<path id="Vector_12" fill-rule="evenodd" clip-rule="evenodd" d="M84.0175 29.28C84.1295 29.1401 84.2566 29.013 84.3966 28.901L85.2626 30.2153C85.0295 30.2153 84.8116 30.2153 84.5927 30.2153C84.5472 30.2153 84.5415 30.1792 84.5264 30.1527C84.3568 29.8561 84.1701 29.5766 84.0175 29.28Z" fill="#707070"/>
</g>
<g id="Group 6">
<path id="Vector_13" d="M60.0465 28.8078C60.0638 29.1474 59.9726 29.4835 59.7871 29.7637C59.7071 29.8767 59.6018 29.9678 59.4803 30.0291C59.3588 30.0904 59.2248 30.12 59.0898 30.1154C58.9358 30.1247 58.7821 30.0929 58.6433 30.0229C58.5044 29.953 58.3852 29.8473 58.2969 29.7159L58.2858 30.0676H58.0264V26.4218H58.3024V27.8748C58.3852 27.7386 58.5015 27.6279 58.6393 27.5539C58.777 27.48 58.9313 27.4456 59.0861 27.4542C59.2216 27.4492 59.3562 27.4782 59.4785 27.5388C59.6009 27.5994 59.7074 27.6897 59.7889 27.8022C59.9758 28.0866 60.0664 28.4276 60.0465 28.7714V28.8078ZM59.7687 28.7581C59.7872 28.482 59.7229 28.2069 59.5847 27.9704C59.5237 27.8808 59.4421 27.8085 59.3473 27.7601C59.2525 27.7116 59.1475 27.6886 59.042 27.6932C58.8803 27.6851 58.7206 27.7326 58.5876 27.8283C58.4546 27.924 58.3556 28.0627 58.306 28.2227V29.3832C58.3629 29.5351 58.465 29.6641 58.5974 29.7514C58.7297 29.8388 58.8855 29.8799 59.042 29.8688C59.1468 29.8728 59.2511 29.8494 59.3449 29.8006C59.4388 29.7518 59.5194 29.6793 59.5792 29.5897C59.7244 29.3397 59.7919 29.0493 59.7724 28.7581" fill="#707070"/>
<path id="Vector_14" d="M61.4286 29.6641L62.1646 27.5H62.4644L61.3937 30.5129L61.3367 30.6449C61.2909 30.7822 61.205 30.9013 61.0907 30.9853C60.9766 31.0693 60.84 31.1141 60.7001 31.1133C60.6278 31.1131 60.5559 31.1021 60.4867 31.0808V30.8456L60.6302 30.859C60.7481 30.865 60.8644 30.8285 60.9595 30.7558C61.0612 30.6599 61.1357 30.5369 61.1748 30.4002L61.298 30.0522L60.3524 27.5H60.6559L61.4286 29.6641Z" fill="#707070"/>
</g>
</g>
<g id="Group 7">
<path id="Vector_15" d="M11.2733 3.75943C11.646 3.75943 12.0033 3.61159 12.2668 3.34845C12.5303 3.0853 12.6783 2.7284 12.6783 2.35624C12.6783 1.9841 12.5303 1.62719 12.2668 1.36404C12.0033 1.1009 11.646 0.953064 11.2733 0.953064C10.8976 0.953064 10.5373 1.10213 10.2716 1.36747C10.006 1.63281 9.85669 1.99269 9.85669 2.36794C9.85669 2.74319 10.006 3.10307 10.2716 3.36841C10.5373 3.63375 10.8976 3.78282 11.2733 3.78282" fill="#FDB818"/>
<path id="Vector_16" d="M5.28304 3.75676C5.65876 3.75676 6.01909 3.60769 6.28476 3.34235C6.55043 3.07701 6.69968 2.71713 6.69968 2.34188C6.69968 1.96663 6.55043 1.60675 6.28476 1.34141C6.01909 1.07607 5.65876 0.927002 5.28304 0.927002C5.09755 0.926996 4.9139 0.963673 4.74267 1.03492C4.57146 1.10617 4.41605 1.21057 4.28543 1.34211C4.15482 1.47365 4.05158 1.62972 3.98167 1.80131C3.91176 1.97291 3.87656 2.15663 3.8781 2.34188C3.87656 2.52713 3.91176 2.71085 3.98167 2.88244C4.05158 3.05404 4.15482 3.2101 4.28543 3.34165C4.41605 3.47318 4.57146 3.57759 4.74267 3.64884C4.9139 3.72008 5.09755 3.75676 5.28304 3.75676Z" fill="#FDB818"/>
<path id="Vector_17" d="M15.1856 5.10413H13.104V14.5148C13.1111 15.1654 12.9881 15.8108 12.742 16.4133C12.4959 17.0156 12.1317 17.5629 11.6709 18.0228C11.2509 18.4771 10.741 18.8393 10.1735 19.0865C9.60593 19.3337 8.99314 19.4605 8.37402 19.4587C7.75069 19.4607 7.13369 19.3341 6.56156 19.087C5.98943 18.84 5.47451 18.4777 5.04898 18.0228C4.59206 17.5614 4.23233 17.0133 3.99102 16.4108C3.74972 15.8083 3.63174 15.1636 3.64405 14.5148V5.10413H0.852905V14.4914C0.852905 16.6313 1.55537 18.4227 2.94626 19.8376C4.33715 21.2524 6.12844 21.9751 8.27801 21.9751C10.4276 21.9751 12.1977 21.2524 13.584 19.8376C14.9702 18.4227 15.7054 16.6313 15.7054 14.4914V5.10413H15.1856Z" fill="#FDB818"/>
<path id="Vector_18" d="M62.108 5.0697C60.0007 5.0697 58.2539 5.78766 56.863 7.19318C55.4721 8.59869 54.7767 10.348 54.7767 12.4692V21.9757H57.3219V12.5627C57.3166 11.9134 57.4417 11.2697 57.6898 10.6695C57.938 10.0694 58.3042 9.52509 58.7666 9.06876C59.1921 8.61293 59.7073 8.2499 60.2798 8.00239C60.8525 7.75488 61.4701 7.62828 62.094 7.63051C62.7221 7.62778 63.3442 7.75401 63.9213 8.0014C64.4984 8.24885 65.0185 8.61213 65.4493 9.06876C65.9086 9.52645 66.2706 10.0716 66.5142 10.6718C66.7578 11.272 66.8787 11.9151 66.8687 12.5627V21.9757H69.4114V12.4692C69.4114 10.348 68.7091 8.59869 67.325 7.19318C66.6487 6.49985 65.8361 5.95339 64.9385 5.58801C64.0403 5.22264 63.0771 5.04618 62.108 5.0697Z" fill="#FDB818"/>
<path id="Vector_19" d="M84.7282 21.4523L77.9519 13.3349L84.1827 5.1052H83.8969H81.1714L73.8751 14.544V0.848877H71.6088H71.3231V21.9761H73.6736H73.9594L73.9618 18.3255L76.4344 15.2035L81.6022 21.4523L82.038 21.9761H84.8713H85.1546L84.7282 21.4523Z" fill="#FDB818"/>
<path id="Vector_20" d="M52.9524 18.2857V13.6248V13.5125C53.0041 12.434 52.8264 11.3567 52.4308 10.3517C52.0353 9.34677 51.431 8.43697 50.6577 7.6823C49.9058 6.87947 49.0003 6.23543 47.9948 5.78834C46.9893 5.34124 45.9042 5.10018 44.8037 5.07941C43.6719 5.01748 42.5399 5.2002 41.4852 5.6151C40.4305 6.03001 39.4778 6.66731 38.6923 7.48351C37.8737 8.26437 37.2248 9.20507 36.7857 10.247C36.3466 11.2891 36.1268 12.4101 36.14 13.5406C36.1281 14.626 36.3326 15.7029 36.7414 16.7087C37.1503 17.7144 37.7553 18.6289 38.5213 19.3989C39.262 20.1899 40.1535 20.825 41.1436 21.2668C42.1336 21.7085 43.2021 21.9481 44.2863 21.9714C45.437 22.0269 46.5861 21.8319 47.654 21.3998C48.7218 20.9677 49.6828 20.3089 50.4703 19.4691V21.9784H52.957V18.2857H52.9524ZM44.5462 19.455C41.3617 19.4644 38.786 16.8124 38.786 13.5429C38.786 10.2735 41.3617 7.63321 44.5462 7.63321C47.7307 7.63321 50.3111 10.2852 50.3111 13.5546C50.3111 16.824 47.7354 19.4761 44.5462 19.4761" fill="#FDB818"/>
<path id="Vector_21" d="M31.9134 7.48221C31.1306 6.6688 30.1818 6.03314 29.1313 5.61833C28.0809 5.20351 26.9534 5.01926 25.8253 5.07809C24.7661 5.09274 23.7203 5.31665 22.7481 5.73689C21.776 6.15714 20.8968 6.76544 20.1611 7.52666V0.927002H17.6252V13.5112C17.5666 15.8311 18.4002 17.8401 20.154 19.5379C21.9079 21.2357 23.9497 22.0566 26.3077 21.9701C27.3981 21.9478 28.4733 21.7088 29.4703 21.2672C30.4673 20.8255 31.3663 20.1899 32.1148 19.3976C32.881 18.63 33.4867 17.7177 33.8964 16.7139C34.306 15.7101 34.5115 14.6349 34.5008 13.551C34.5008 11.2123 33.6368 9.19175 31.9251 7.49391L31.9134 7.48221ZM26.0712 19.4911C22.8633 19.4794 20.2876 16.8274 20.2876 13.558C20.2876 10.2886 22.8633 7.63191 26.0618 7.63191C29.2604 7.63191 31.8384 10.2815 31.8384 13.551C31.8384 16.8204 29.251 19.4724 26.0618 19.4724" fill="#FDB818"/>
</g>
</g>
</g>
</svg>
